# xmcd
#
# Track frame offsets:
#	150
#	15993
#	32365
#	46785
#	63929
#	78491
#	94895
#	112180
#	127442
#	148122
#	166650
#	182852
#	198294
#	214039
#	227197
#	243081
#	259374
#	275396
#	290870
#	307442
#	326869
#
# Disc length: 4536 seconds
#
# Revision: 0
# Processed by: cddbd v1.5.1PL0 Copyright (c) Steve Scherf et al.
# Submitted via: dBpowerAMP V4.0
#
DISCID=4011b615
DTITLE=Жасмин - Да!
DYEAR=2005
DGENRE=Pop
TTITLE0=Да
TTITLE1=Самый Любимый
TTITLE2=Разгадай Любовь
TTITLE3=Капля Лета
TTITLE4=Три Слова
TTITLE5=Время Любви (Non-Stop)
TTITLE6=Как Всегда
TTITLE7=Море-Море
TTITLE8=Так Не Должно Быть
TTITLE9=Иерусалим
TTITLE10=Ты Меня Любил
TTITLE11=Назовёт
TTITLE12=Вкус Ночи
TTITLE13=Утренняя Гимнастика
TTITLE14=Самый Любимый (Remix)
TTITLE15=Dolce Vita
TTITLE16=Головоломка
TTITLE17=Запутала
TTITLE18=Не Отпускай Меня
TTITLE19=Укради Меня
TTITLE20=Торопишся Слишком (Remix)
EXTD=
EXTT0=
EXTT1=
EXTT2=
EXTT3=
EXTT4=
EXTT5=
EXTT6=
EXTT7=
EXTT8=
EXTT9=
EXTT10=
EXTT11=
EXTT12=
EXTT13=
EXTT14=
EXTT15=
EXTT16=
EXTT17=
EXTT18=
EXTT19=
EXTT20=
PLAYORDER=
